<mxfile host="65bd71144e">
    <diagram id="e93RV_Hw65qzttHAeFEB" name="Page-1">
        <mxGraphModel dx="592" dy="584" grid="1" gridSize="10" guides="1" tooltips="1" connect="1" arrows="1" fold="1" page="1" pageScale="1" pageWidth="827" pageHeight="1169" math="0" shadow="0">
            <root>
                <mxCell id="0"/>
                <mxCell id="1" parent="0"/>
                <mxCell id="23" value="" style="edgeStyle=none;html=1;fontColor=#f0f0f0;fillColor=#60a917;strokeColor=#2D7600;" edge="1" parent="1" source="24" target="26">
                    <mxGeometry relative="1" as="geometry"/>
                </mxCell>
                <mxCell id="24" value="&lt;div style=&quot;font-family: consolas, &amp;quot;courier new&amp;quot;, monospace; font-size: 16px; line-height: 22px;&quot;&gt;Lexical Analysis&lt;/div&gt;" style="rounded=0;whiteSpace=wrap;html=1;" vertex="1" parent="1">
                    <mxGeometry x="250" y="90" width="120" height="60" as="geometry"/>
                </mxCell>
                <mxCell id="25" value="" style="edgeStyle=none;html=1;fontColor=#f0f0f0;fillColor=#60a917;strokeColor=#2D7600;" edge="1" parent="1" source="26" target="28">
                    <mxGeometry relative="1" as="geometry"/>
                </mxCell>
                <mxCell id="26" value="&lt;div style=&quot;font-family: &amp;quot;consolas&amp;quot; , &amp;quot;courier new&amp;quot; , monospace ; font-size: 16px ; line-height: 22px&quot;&gt;&lt;div style=&quot;font-family: consolas, &amp;quot;courier new&amp;quot;, monospace; line-height: 22px;&quot;&gt;&lt;div style=&quot;font-family: consolas, &amp;quot;courier new&amp;quot;, monospace; line-height: 22px;&quot;&gt;Syntactic Analysis&lt;/div&gt;&lt;/div&gt;&lt;/div&gt;" style="rounded=0;whiteSpace=wrap;html=1;" vertex="1" parent="1">
                    <mxGeometry x="470" y="90" width="120" height="60" as="geometry"/>
                </mxCell>
                <mxCell id="27" value="" style="edgeStyle=none;html=1;fontColor=#f0f0f0;fillColor=#0050ef;strokeColor=#001DBC;" edge="1" parent="1" source="28" target="30">
                    <mxGeometry relative="1" as="geometry"/>
                </mxCell>
                <mxCell id="28" value="&lt;div style=&quot;font-family: consolas, &amp;quot;courier new&amp;quot;, monospace; font-size: 16px; line-height: 22px;&quot;&gt;Semantic Analysis&lt;/div&gt;" style="whiteSpace=wrap;html=1;rounded=0;" vertex="1" parent="1">
                    <mxGeometry x="670" y="90" width="120" height="60" as="geometry"/>
                </mxCell>
                <mxCell id="29" value="" style="edgeStyle=none;html=1;fontColor=#f0f0f0;fillColor=#0050ef;strokeColor=#001DBC;" edge="1" parent="1" source="30" target="32">
                    <mxGeometry relative="1" as="geometry"/>
                </mxCell>
                <mxCell id="30" value="&lt;div style=&quot;font-family: consolas, &amp;quot;courier new&amp;quot;, monospace; font-size: 16px; line-height: 22px;&quot;&gt;Generate intermediate code&lt;/div&gt;" style="whiteSpace=wrap;html=1;rounded=0;" vertex="1" parent="1">
                    <mxGeometry x="870" y="90" width="120" height="60" as="geometry"/>
                </mxCell>
                <mxCell id="31" value="" style="edgeStyle=none;html=1;fontColor=#f0f0f0;fillColor=#0050ef;strokeColor=#001DBC;" edge="1" parent="1" source="32" target="33">
                    <mxGeometry relative="1" as="geometry"/>
                </mxCell>
                <mxCell id="32" value="&lt;div style=&quot;font-family: consolas, &amp;quot;courier new&amp;quot;, monospace; font-size: 16px; line-height: 22px;&quot;&gt;Optimization&lt;/div&gt;" style="whiteSpace=wrap;html=1;rounded=0;" vertex="1" parent="1">
                    <mxGeometry x="1070" y="90" width="120" height="60" as="geometry"/>
                </mxCell>
                <mxCell id="33" value="&lt;div style=&quot;font-family: consolas, &amp;quot;courier new&amp;quot;, monospace; font-size: 16px; line-height: 22px;&quot;&gt;Generate target code&lt;/div&gt;" style="whiteSpace=wrap;html=1;rounded=0;" vertex="1" parent="1">
                    <mxGeometry x="1270" y="90" width="120" height="60" as="geometry"/>
                </mxCell>
                <mxCell id="34" value="&#10;&#10;&lt;div style=&quot;font-family: consolas, &amp;quot;courier new&amp;quot;, monospace; font-weight: normal; font-size: 16px; line-height: 22px;&quot;&gt;&lt;div&gt;&lt;span style=&quot;font-weight: bold;&quot;&gt;Front end&lt;/span&gt;&lt;/div&gt;&lt;/div&gt;&#10;&#10;" style="text;html=1;strokeColor=#2D7600;align=center;verticalAlign=middle;whiteSpace=wrap;rounded=0;fillColor=#60a917;fontColor=#FFFFFF;" vertex="1" parent="1">
                    <mxGeometry x="250" y="40" width="550" height="40" as="geometry"/>
                </mxCell>
                <mxCell id="35" value="&lt;div style=&quot;font-family: consolas, &amp;quot;courier new&amp;quot;, monospace; font-size: 16px; line-height: 22px;&quot;&gt;&lt;span style=&quot;font-weight: bold;&quot;&gt;Back end&lt;/span&gt;&lt;/div&gt;" style="text;html=1;strokeColor=#006EAF;fillColor=#1ba1e2;align=center;verticalAlign=middle;whiteSpace=wrap;rounded=0;" vertex="1" parent="1">
                    <mxGeometry x="840" y="40" width="560" height="40" as="geometry"/>
                </mxCell>
            </root>
        </mxGraphModel>
    </diagram>
</mxfile>
